<svg xmlns="http://www.w3.org/2000/svg" width="28.664" height="21.787" viewBox="0 0 28.664 21.787"><defs><style>.a{fill:#fff;}</style></defs><path class="a" d="M22.653,72.213v-9.94A2.777,2.777,0,0,0,19.88,59.5H2.774A2.777,2.777,0,0,0,0,62.273v9.94a2.777,2.777,0,0,0,2.774,2.774h2.49l.053,2.5A.925.925,0,0,0,6.8,78.21l4.275-3.223H19.88A2.777,2.777,0,0,0,22.653,72.213Zm-11.89.925a.925.925,0,0,0-.557.186l-3.08,2.322-.034-1.6a.925.925,0,0,0-.924-.905h-3.4a.926.926,0,0,1-.925-.925v-9.94a.926.926,0,0,1,.925-.925H19.88a.926.926,0,0,1,.925.925v9.94a.926.926,0,0,1-.925.925H10.764Zm17.9-5.085V75.68a2.777,2.777,0,0,1-2.774,2.774H23.4l-.049,1.931a.925.925,0,0,1-.924.9c-.369,0-.164.064-4.788-2.832H13.407a.925.925,0,0,1,0-1.849c4.9,0,4.675-.052,4.983.141l3.149,1.972.031-1.211a.925.925,0,0,1,.924-.9h3.4a.926.926,0,0,0,.925-.925V68.052a.926.926,0,0,0-.925-.925.925.925,0,1,1,0-1.849,2.777,2.777,0,0,1,2.774,2.774ZM17.106,65.567a.925.925,0,0,1-.925.925H6.472a.925.925,0,0,1,0-1.849h9.709A.925.925,0,0,1,17.106,65.567ZM15.43,69.612a.925.925,0,0,1-.925.925H8.148a.925.925,0,0,1,0-1.849h6.357A.925.925,0,0,1,15.43,69.612Z" transform="translate(0 -59.499)"/></svg>