<svg xmlns="http://www.w3.org/2000/svg" width="46.058" height="43.425" viewBox="0 0 46.058 43.425">
    <defs>
        <style>
            .cls-1{fill:#b6b6b6;stroke:#b6b6b6;stroke-width:.5px}
        </style>
    </defs>
    <g id="computer" transform="translate(.25 .25)">
        <path id="Path_8304" data-name="Path 8304" class="cls-1" d="M26.072 72.041h13.962V74.4a1.373 1.373 0 0 1-1.372 1.372 3.531 3.531 0 0 0-3.527 3.528.588.588 0 0 0 .588.588H56.3a.588.588 0 0 0 .588-.588 3.531 3.531 0 0 0-3.362-3.523.574.574 0 0 0-.068 0h-.1a1.373 1.373 0 0 1-1.369-1.377v-2.359h14.546a2.55 2.55 0 0 0 2.548-2.548V39.51a2.551 2.551 0 0 0-2.548-2.548H26.072a2.551 2.551 0 0 0-2.548 2.548v29.983a2.55 2.55 0 0 0 2.548 2.548zm27.288 4.906a2.356 2.356 0 0 1 2.277 1.764H36.385a2.356 2.356 0 0 1 2.277-1.764A2.55 2.55 0 0 0 41.21 74.4v-2.359h9.6V74.4a2.532 2.532 0 0 0 .4 1.372h-5.2a.588.588 0 0 0 0 1.176zM24.7 65.182h6.22a.588.588 0 1 0 0-1.176H24.7V39.51a1.373 1.373 0 0 1 1.372-1.372h40.463a1.373 1.373 0 0 1 1.372 1.372v24.5H34.839a.588.588 0 1 0 0 1.176h33.068v4.311a1.373 1.373 0 0 1-1.372 1.372H26.072a1.373 1.373 0 0 1-1.372-1.376z" transform="translate(-23.524 -36.962)"/>
        <path id="Path_8305" data-name="Path 8305" class="cls-1" d="M238.592 341.1a1.568 1.568 0 1 0-1.568-1.568 1.568 1.568 0 0 0 1.568 1.568zm0-1.96a.392.392 0 1 1-.392.392.392.392 0 0 1 .392-.394z" transform="translate(-216.104 -308.469)"/>
        <path id="Path_8306" data-name="Path 8306" class="cls-1" d="M155.464 124.926a.586.586 0 0 0 .416-.172l9.365-9.365a.588.588 0 1 0-.831-.831l-9.365 9.365a.588.588 0 0 0 .416 1z" transform="translate(-142.006 -106.799)"/>
        <path id="Path_8307" data-name="Path 8307" class="cls-1" d="M237.2 174.495a.588.588 0 0 0 .831 0l3.962-3.962a.588.588 0 1 0-.831-.831l-3.962 3.962a.588.588 0 0 0 0 .831z" transform="translate(-216.106 -156.54)"/>
    </g>
</svg>
