<svg xmlns="http://www.w3.org/2000/svg" width="79.622" height="59.057" viewBox="0 0 79.622 59.057">
    <path data-name="credit-card" d="M62.3 35.1a3.024 3.024 0 0 1 3.024 3.024v3.629a3.024 3.024 0 0 1-3.024 3.025h-6.956a3.024 3.024 0 0 1-3.024-3.024v-3.63a3.024 3.024 0 0 1 3.024-3.024zm9.073-5.444v-9.073H6.049v24.176a6.056 6.056 0 0 0 6.051 6.049h53.225a6.056 6.056 0 0 0 6.049-6.049 3.024 3.024 0 1 1 6.049 0 12.111 12.111 0 0 1-12.1 12.1H12.1A12.111 12.111 0 0 1 0 44.759V12.1A12.111 12.111 0 0 1 12.1 0h53.225a12.111 12.111 0 0 1 12.1 12.1v17.556a3.024 3.024 0 0 1-6.049 0zm0-15.121V12.1a6.056 6.056 0 0 0-6.049-6.049H12.1A6.056 6.056 0 0 0 6.049 12.1v2.438zm-56.252 12.1a3.024 3.024 0 0 0 0 6.049h24.95a3.024 3.024 0 1 0 0-6.049zm0 0" style="fill:#078ea0;stroke:#fff;stroke-width:2.2px" transform="translate(1.1 1.1)"/>
</svg>
