<svg xmlns="http://www.w3.org/2000/svg" width="18.181" height="14.285" viewBox="0 0 18.181 14.285">
    <path data-name="envelope-o" d="M16.883 12.662V4.87a5.972 5.972 0 0 1-.7.67q-2.719 2.09-4.322 3.429-.518.436-.842.68a4.667 4.667 0 0 1-.878.492 2.549 2.549 0 0 1-1.04.248h-.02a2.546 2.546 0 0 1-1.04-.248 4.689 4.689 0 0 1-.878-.492q-.325-.243-.842-.68Q4.718 7.63 2 5.54a5.972 5.972 0 0 1-.7-.67v7.792a.329.329 0 0 0 .325.325h14.933a.329.329 0 0 0 .325-.325zm0-10.662v-.25l-.005-.132-.03-.127-.056-.091-.092-.076-.141-.024H1.623a.329.329 0 0 0-.325.325A3.551 3.551 0 0 0 2.79 4.5q1.958 1.547 4.068 3.221l.355.3q.294.249.467.38t.452.32A2.652 2.652 0 0 0 8.644 9a1.218 1.218 0 0 0 .436.091h.02A1.2 1.2 0 0 0 9.537 9a2.724 2.724 0 0 0 .513-.279q.279-.187.451-.32t.467-.38l.355-.3q2.11-1.674 4.068-3.221a4.77 4.77 0 0 0 1.02-1.172A2.538 2.538 0 0 0 16.883 2zm1.3-.375v11.037a1.628 1.628 0 0 1-1.623 1.623H1.623a1.563 1.563 0 0 1-1.146-.477A1.563 1.563 0 0 1 0 12.662V1.623A1.563 1.563 0 0 1 .477.477 1.563 1.563 0 0 1 1.623 0h14.935A1.563 1.563 0 0 1 17.7.477a1.563 1.563 0 0 1 .477 1.146z" style="fill:#078ea0"/>
</svg>
