<svg id="Component_272_5" data-name="Component 272 – 5" xmlns="http://www.w3.org/2000/svg" width="76.214" height="76.214" viewBox="0 0 76.214 76.214">
    <defs>
        <style>
            .cls-1{fill:#078ea0}
        </style>
    </defs>
    <path id="Path_4525" data-name="Path 4525" class="cls-1" d="M76.593 79.133H15.621A7.485 7.485 0 0 1 8 71.512V15.621C8 11.3 10.795 8 14.351 8h3.811v5.081h-3.811c-.508 0-1.27 1.016-1.27 2.54v55.891a2.4 2.4 0 0 0 2.54 2.54h60.972a2.4 2.4 0 0 0 2.54-2.54V15.621c0-1.524-.762-2.54-1.27-2.54h-3.811V8h3.811c3.557 0 6.351 3.3 6.351 7.621v55.891a7.485 7.485 0 0 1-7.621 7.621z" transform="translate(-8 -2.92)"/>
    <path id="Path_4526" data-name="Path 4526" class="cls-1" d="M15.34 21.643A2.4 2.4 0 0 1 12.8 19.1V8.94a2.4 2.4 0 0 1 2.54-2.54 2.4 2.4 0 0 1 2.54 2.54V19.1a2.4 2.4 0 0 1-2.54 2.543z" transform="translate(2.443 -6.4)"/>
    <path id="Path_4527" data-name="Path 4527" class="cls-1" d="M28.14 21.643A2.4 2.4 0 0 1 25.6 19.1V8.94a2.4 2.4 0 0 1 2.54-2.54 2.4 2.4 0 0 1 2.54 2.54V19.1a2.4 2.4 0 0 1-2.54 2.543z" transform="translate(30.291 -6.4)"/>
    <path id="Path_4528" data-name="Path 4528" class="cls-1" d="M16 8h25.4v5.081H16z" transform="translate(9.404 -2.92)"/>
    <path id="Path_4529" data-name="Path 4529" class="cls-1" d="M9.6 12.8h66.052v5.081H9.6z" transform="translate(-4.52 7.524)"/>
    <path id="Path_4530" data-name="Path 4530" class="cls-1" d="M27.2 16h5.081v5.081H27.2z" transform="translate(33.771 14.487)"/>
    <path id="Path_4531" data-name="Path 4531" class="cls-1" d="M24 16h5.081v5.081H24z" transform="translate(26.811 14.487)"/>
    <path id="Path_4532" data-name="Path 4532" class="cls-1" d="M20.8 16h5.081v5.081H20.8z" transform="translate(19.848 14.487)"/>
    <path id="Path_4533" data-name="Path 4533" class="cls-1" d="M17.6 16h5.081v5.081H17.6z" transform="translate(12.887 14.487)"/>
    <path id="Path_4534" data-name="Path 4534" class="cls-1" d="M14.4 16h5.081v5.081H14.4z" transform="translate(5.924 14.487)"/>
    <path id="Path_4535" data-name="Path 4535" class="cls-1" d="M27.2 19.2h5.081v5.081H27.2z" transform="translate(33.771 21.448)"/>
    <path id="Path_4536" data-name="Path 4536" class="cls-1" d="M24 19.2h5.081v5.081H24z" transform="translate(26.811 21.448)"/>
    <path id="Path_4537" data-name="Path 4537" class="cls-1" d="M20.8 19.2h5.081v5.081H20.8z" transform="translate(19.848 21.448)"/>
    <path id="Path_4538" data-name="Path 4538" class="cls-1" d="M17.6 19.2h5.081v5.081H17.6z" transform="translate(12.887 21.448)"/>
    <path id="Path_4539" data-name="Path 4539" class="cls-1" d="M14.4 19.2h5.081v5.081H14.4z" transform="translate(5.924 21.448)"/>
    <path id="Path_4540" data-name="Path 4540" class="cls-1" d="M11.2 19.2h5.081v5.081H11.2z" transform="translate(-1.039 21.448)"/>
    <path id="Path_4541" data-name="Path 4541" class="cls-1" d="M27.2 22.4h5.081v5.081H27.2z" transform="translate(33.771 28.411)"/>
    <path id="Path_4542" data-name="Path 4542" class="cls-1" d="M24 22.4h5.081v5.081H24z" transform="translate(26.811 28.411)"/>
    <path id="Path_4543" data-name="Path 4543" class="cls-1" d="M20.8 22.4h5.081v5.081H20.8z" transform="translate(19.848 28.411)"/>
    <path id="Path_4544" data-name="Path 4544" class="cls-1" d="M17.6 22.4h5.081v5.081H17.6z" transform="translate(12.887 28.411)"/>
    <path id="Path_4545" data-name="Path 4545" class="cls-1" d="M14.4 22.4h5.081v5.081H14.4z" transform="translate(5.924 28.411)"/>
    <path id="Path_4546" data-name="Path 4546" class="cls-1" d="M11.2 22.4h5.081v5.081H11.2z" transform="translate(-1.039 28.411)"/>
    <path id="Path_4547" data-name="Path 4547" class="cls-1" d="M24 25.6h5.081v5.081H24z" transform="translate(26.811 35.371)"/>
    <path id="Path_4548" data-name="Path 4548" class="cls-1" d="M20.8 25.6h5.081v5.081H20.8z" transform="translate(19.848 35.371)"/>
    <path id="Path_4549" data-name="Path 4549" class="cls-1" d="M17.6 25.6h5.081v5.081H17.6z" transform="translate(12.887 35.371)"/>
    <path id="Path_4550" data-name="Path 4550" class="cls-1" d="M14.4 25.6h5.081v5.081H14.4z" transform="translate(5.924 35.371)"/>
    <path id="Path_4551" data-name="Path 4551" class="cls-1" d="M11.2 25.6h5.081v5.081H11.2z" transform="translate(-1.039 35.371)"/>
</svg>
