<svg xmlns="http://www.w3.org/2000/svg" width="18.057" height="16.051" viewBox="0 0 18.057 16.051">
    <path data-name="flag-o" d="M16.719 9.582V3.145a6.868 6.868 0 0 1-3.2.951 3.3 3.3 0 0 1-1.515-.335 15.09 15.09 0 0 0-1.923-.8 5.94 5.94 0 0 0-1.86-.287A9 9 0 0 0 4.013 4v6.259a11.05 11.05 0 0 1 4.525-1.178 7.089 7.089 0 0 1 1.081.078 5.179 5.179 0 0 1 1.024.272q.518.194.8.324t.862.413l.292.146a2.331 2.331 0 0 0 1.055.23 6.839 6.839 0 0 0 3.067-.962zM2.675 1.338a1.268 1.268 0 0 1-.183.669 1.37 1.37 0 0 1-.486.481v13.228a.324.324 0 0 1-.094.24.328.328 0 0 1-.24.094H1a.324.324 0 0 1-.24-.094.328.328 0 0 1-.094-.24V2.487a1.368 1.368 0 0 1-.486-.481A1.265 1.265 0 0 1 0 1.338 1.288 1.288 0 0 1 .392.392 1.291 1.291 0 0 1 1.338 0a1.285 1.285 0 0 1 .945.392 1.293 1.293 0 0 1 .392.946zm15.382.669V9.98a.626.626 0 0 1-.366.6l-.178.094a8.613 8.613 0 0 1-3.856 1.212 3.644 3.644 0 0 1-1.651-.366l-.292-.146q-.669-.345-1.035-.5a6.5 6.5 0 0 0-.951-.3 4.885 4.885 0 0 0-1.191-.146 8 8 0 0 0-2.461.46 11.514 11.514 0 0 0-2.388 1.065.658.658 0 0 1-.345.094.742.742 0 0 1-.335-.084.64.64 0 0 1-.335-.585V3.615A.651.651 0 0 1 3 3.041q.366-.22.82-.444t1.19-.544a9.241 9.241 0 0 1 1.59-.517 7.23 7.23 0 0 1 1.62-.2 7.134 7.134 0 0 1 2.184.324 16.16 16.16 0 0 1 2.184.9 2.055 2.055 0 0 0 .93.2 6.8 6.8 0 0 0 3.239-1.17l.324-.178a.637.637 0 0 1 .648.021.651.651 0 0 1 .324.575z" style="fill:#a70101"/>
</svg>
