<svg xmlns="http://www.w3.org/2000/svg" width="19.995" height="17.915">
    <path data-name="heart" d="M18.979 4.452a5.232 5.232 0 0 0-7.4 0l-.634.642-.629-.641a5.232 5.232 0 0 0-7.4 0l-.283.283a5.232 5.232 0 0 0 0 7.4l7.454 7.454.842.882.02-.02.022.022.789-.832 7.506-7.506a5.237 5.237 0 0 0 0-7.4zm-.642 6.756L10.946 18.6l-7.391-7.392a3.924 3.924 0 0 1 0-5.549l.283-.283a3.924 3.924 0 0 1 5.547 0l1.557 1.585L12.5 5.376a3.924 3.924 0 0 1 5.549 0l.283.283a3.928 3.928 0 0 1 0 5.549z" transform="translate(-.947 -2.77)" style="fill:#078ea0;stroke:#078ea0;stroke-width:.3px"/>
</svg>
