<svg xmlns="http://www.w3.org/2000/svg" width="16.09" height="14.334" viewBox="0 0 16.09 14.334">
    <path data-name="heart" d="M8.045 14.333a.527.527 0 0 1-.4-.168l-5.6-5.617a3.025 3.025 0 0 1-.245-.243q-.157-.168-.5-.611a8.255 8.255 0 0 1-.611-.91 5.785 5.785 0 0 1-.48-1.129A4.217 4.217 0 0 1 0 4.367a4.376 4.376 0 0 1 1.14-3.21A4.224 4.224 0 0 1 4.292 0a3.454 3.454 0 0 1 1.136.2 4.54 4.54 0 0 1 1.077.542q.5.34.857.639a8.579 8.579 0 0 1 .683.635 8.378 8.378 0 0 1 .683-.635q.359-.3.858-.639A4.529 4.529 0 0 1 10.663.2 3.455 3.455 0 0 1 11.8 0a4.223 4.223 0 0 1 3.15 1.157 4.376 4.376 0 0 1 1.14 3.21 6.192 6.192 0 0 1-2.056 4.2l-5.594 5.6a.527.527 0 0 1-.4.168z" style="fill:#e6e6e6"/>
</svg>
