<svg xmlns="http://www.w3.org/2000/svg" width="196.672" height="201.005" viewBox="0 0 196.672 201.005"><defs><style>.a{fill:#078ea0;}.b{fill:#15b9a2;opacity:0.198;}</style></defs><g transform="translate(22.043)"><path class="a" d="M151.784,163.267a21.865,21.865,0,0,0,5.946-15.117V136.558c0-17.678-11.095-33.27-26.98-37.92l-4-1.173V92.7l.938-.432c10.01-4.6,16.911-14.413,18.449-25.751H152.1c6.213,0,11.266-5.424,11.266-12.094a12.356,12.356,0,0,0-4.594-9.693,35.582,35.582,0,0,0,1.777-11.075C160.546,15.1,146.483,0,129.194,0H101.766C84.478,0,70.415,15.1,70.415,33.654a35.615,35.615,0,0,0,1.777,11.078,12.346,12.346,0,0,0-4.594,9.69c0,6.67,5.053,12.094,11.266,12.094h5.963c1.538,11.335,8.439,21.143,18.449,25.751l.938.429v4.768l-4,1.173c-15.888,4.65-26.983,20.242-26.983,37.92V148.15a21.865,21.865,0,0,0,5.946,15.117H39.807a9.665,9.665,0,0,0,.369-1.533l4.459-28.7h.431a5.857,5.857,0,0,0,5.633-6.047v-6.047a5.857,5.857,0,0,0-5.633-6.047h-.62L41.632,102.8H9.067L6.253,114.892h-.62A5.857,5.857,0,0,0,0,120.939v6.047a5.857,5.857,0,0,0,5.633,6.047h.431l4.456,28.7a9.669,9.669,0,0,0,.372,1.533H0v24.188H174.629V163.267Zm-53.544,0a2.923,2.923,0,0,1-2.476-2.951v-3.023H135.2v3.023a2.925,2.925,0,0,1-2.476,2.951ZM135.2,151.246H95.764V123.962a2.927,2.927,0,0,1,2.817-3.023h33.8a2.927,2.927,0,0,1,2.817,3.023Zm16.9-90.777h-5.633V48.376H152.1a6.062,6.062,0,0,1,0,12.094ZM73.232,54.422a5.857,5.857,0,0,1,5.633-6.047H84.5V60.469H78.865A5.857,5.857,0,0,1,73.232,54.422ZM84.819,42.329H78.865a10.455,10.455,0,0,0-1.451.157,29.288,29.288,0,0,1-1.366-8.832c0-15.223,11.537-27.607,25.718-27.607h27.428c14.182,0,25.718,12.384,25.718,27.607a29.273,29.273,0,0,1-1.366,8.832,10.456,10.456,0,0,0-1.451-.157h-5.633V41.134a23.853,23.853,0,0,0-9.7-19.465L133.636,26.7a17.414,17.414,0,0,1,6.881,11.024,27.951,27.951,0,0,0-8.8-1.442h-4.968a7.948,7.948,0,0,1-3.464-.8,23.389,23.389,0,0,0-9.058-13.811L111.1,26.7a17.414,17.414,0,0,1,6.881,11.024,27.837,27.837,0,0,0-8.8-1.445h-4.968c-4.659,0-8.45-4.07-8.45-9.07V24.188H90.131v3.023A15.95,15.95,0,0,0,91.1,32.6a15.131,15.131,0,0,0-6.278,9.733ZM90.131,61.7V45.352A9.237,9.237,0,0,1,94.1,37.688a13.576,13.576,0,0,0,10.112,4.641h4.968a22.618,22.618,0,0,1,10.672,2.706l4.076,2.186V41.987a13.139,13.139,0,0,0,2.817.342h4.968a22.557,22.557,0,0,1,9.115,1.986V61.7c0,10.9-6.03,20.717-15.362,25.01l-.938.432a6.067,6.067,0,0,0-3.417,5.557v6.361a6.113,6.113,0,0,1-11.266,0V92.7a6.067,6.067,0,0,0-3.417-5.557l-.938-.429C96.161,82.414,90.131,72.6,90.131,61.7ZM78.865,148.15V136.558c0-14.957,9.388-28.152,22.831-32.085l3.96-1.161a11.488,11.488,0,0,0,19.649,0l3.963,1.161c13.441,3.934,22.829,17.128,22.829,32.085V148.15c0,7.456-5.064,13.63-11.689,14.857a9.514,9.514,0,0,0,.423-2.691v-9.143h5.633v-6.047H140.83V123.962c0-5-3.791-9.07-8.45-9.07h-33.8c-4.659,0-8.45,4.07-8.45,9.07v21.164H84.5v6.047h5.633v9.143a9.514,9.514,0,0,0,.422,2.691C83.929,161.78,78.865,155.606,78.865,148.15Zm-65.4-39.305H37.233l1.411,6.047H12.058ZM5.633,120.939H45.066l.006,6.047H5.633Zm10.444,39.8-4.3-27.71H38.923l-4.3,27.71a2.868,2.868,0,0,1-2.774,2.525H18.854a2.873,2.873,0,0,1-2.777-2.525ZM169,181.408H5.633V169.314H97.9c.228.021.448.073.682.073h33.8c.234,0,.453-.054.682-.073H169Z" transform="translate(0)"/><path class="a" d="M41,42a3,3,0,1,0,3,3A3,3,0,0,0,41,42Zm0,4a1,1,0,1,1,1-1A1,1,0,0,1,41,46Z" transform="translate(76.427 94.091)"/><circle class="a" cx="1" cy="1" r="1" transform="translate(129.07 49.508)"/><circle class="a" cx="1" cy="1" r="1" transform="translate(101.07 49.508)"/><path class="a" d="M41,27a4.212,4.212,0,0,0,3.789-2.342l.1-.211-1.789-.9-.1.211a2.236,2.236,0,0,1-4,0l-.1-.211-1.789.9.1.211A4.214,4.214,0,0,0,41,27Z" transform="translate(77.088 50.463)"/><path class="a" d="M40.446,22.9l1.1-.553a2,2,0,0,0,.895-2.684L42,18.764V17H40v2a1,1,0,0,0,.1.447l.553,1.1-1.1.553Z" transform="translate(75.639 38.013)"/><path class="a" d="M14,18A9,9,0,1,0,5,9,9.01,9.01,0,0,0,14,18ZM13,2.08V4h2V2.08A7,7,0,0,1,20.92,8H19v2h1.92A7,7,0,0,1,15,15.92V14H13v1.92A7,7,0,0,1,7.08,10H9V8H7.08A7,7,0,0,1,13,2.08Z"/><path class="a" d="M15,9.414V6H13V8.586l-1.707,1.707,1.414,1.414Z" transform="translate(21.819)"/><path class="a" d="M20,28H15a3,3,0,0,0-3,3v1h2V31a1,1,0,0,1,1-1h5a3,3,0,0,0,0-6H16V23a3,3,0,0,0-3-3H12v2h1a1,1,0,0,1,1,1v3h6a1,1,0,0,1,0,2Z" transform="translate(26.501 50.182)"/><path class="a" d="M3,30H7a1,1,0,0,1,1,1v1h2V31a3,3,0,0,0-3-3H3a1,1,0,0,1,0-2h7V24H3a3,3,0,0,0,0,6Z" transform="translate(0 55.758)"/><path class="a" d="M8,20h2v2H8Z" transform="translate(0 41.818)"/></g><ellipse class="b" cx="70.128" cy="72.745" rx="70.128" ry="72.745" transform="translate(0 55.516)"/></svg>