<svg xmlns="http://www.w3.org/2000/svg" xmlns:xlink="http://www.w3.org/1999/xlink" width="168.264" height="181.94" viewBox="0 0 168.264 181.94"><defs><style>.a{fill:none;}.b{clip-path:url(#a);}.c{fill:#078ea0;}.d{fill:#15b9a2;opacity:0.198;}</style><clipPath id="a"><rect class="a" width="168.264" height="181.94"/></clipPath></defs><g class="b"><g transform="translate(-1436.584 -1313.856)"><g transform="translate(1436.584 1313.856)"><g transform="translate(-18.47 9.144)"><path class="c" d="M118.851,395.846c.044,0,.089,0,.134,0a21.317,21.317,0,0,0,7.309-1.723c2.509,2.335,6.4,2.266,10.26-.29q.1-.065.188-.121a3.982,3.982,0,0,0,1.525,1.177c2.182.966,4.644-.154,5.346-.52a30.614,30.614,0,0,0,3.115-1.868,4.052,4.052,0,0,0,2.978,2.606,4.759,4.759,0,0,0,2.894-.472,21.923,21.923,0,0,0,4.595-2.817c5.591,3.665,12.872,3.056,19.312,2.174a2.531,2.531,0,0,0-.686-5.015c-5.765.788-12.263,1.366-16.41-1.787a3.8,3.8,0,0,0-4.783.18,16.88,16.88,0,0,1-3.267,2.239,3.8,3.8,0,0,0-6.083-2.318,25.538,25.538,0,0,1-4,2.591,3.372,3.372,0,0,1-.657.26,3.3,3.3,0,0,0-1.815-1.723c-1.832-.707-3.754.343-5.041,1.194a8.8,8.8,0,0,1-1.626.844,21.313,21.313,0,0,0,6.382-9.552,4.984,4.984,0,0,0-1.414-5.255c-1.594-1.411-4.333-1.924-7.242.868a19.4,19.4,0,0,0-5.727,10.983,8.2,8.2,0,0,0-.06,2.048,16.06,16.06,0,0,1-5.353,1.243,2.531,2.531,0,0,0,.13,5.059Zm14.516-15.681.068-.063a16.153,16.153,0,0,1-3.641,5.579A14.4,14.4,0,0,1,133.367,380.165Z" transform="translate(-48.652 -248.11)"/><path class="c" d="M170.832,31.5h.325a2.531,2.531,0,1,0,0-5.062h-.325a2.531,2.531,0,1,0,0,5.062Z" transform="translate(-83.088 -17.513)"/><path class="c" d="M295.494,31.5h.325a2.531,2.531,0,1,0,0-5.062h-.325a2.531,2.531,0,1,0,0,5.062Z" transform="translate(-165.678 -17.513)"/><path class="c" d="M175,33.544c0-.023,0-.046,0-.07V9.281A9.291,9.291,0,0,0,165.718,0H52.167a9.291,9.291,0,0,0-9.281,9.281V127.066a2.531,2.531,0,0,0,5.062,0V9.281a4.223,4.223,0,0,1,4.219-4.219H73.506V10.2H59.546a5.706,5.706,0,0,0-5.7,5.7V156.662a5.706,5.706,0,0,0,5.7,5.7h98.793a5.706,5.706,0,0,0,5.7-5.7V132.128a2.531,2.531,0,1,0-5.062,0v24.534a.638.638,0,0,1-.637.637H59.546a.638.638,0,0,1-.637-.637V15.9a.638.638,0,0,1,.637-.637h13.96V17A5.913,5.913,0,0,0,79.412,22.9h1.916v4.017a7.849,7.849,0,0,0,7.84,7.84h39.548a7.849,7.849,0,0,0,7.84-7.84V22.9h1.916A5.913,5.913,0,0,0,144.379,17V15.263h13.96a.638.638,0,0,1,.637.637v14.62A23.978,23.978,0,0,0,140.8,44.828H68.072a2.531,2.531,0,1,0,0,5.062h71.235A23.777,23.777,0,0,0,143.97,68.77H93.943a2.531,2.531,0,1,0,0,5.062h55.409a23.757,23.757,0,0,0,9.624,3.866v42.955a2.531,2.531,0,0,0,5.062,0V77.982a23.776,23.776,0,0,0,5.9-1.048v86.58a4.223,4.223,0,0,1-4.219,4.219H52.167a4.223,4.223,0,0,1-4.219-4.219V138.54a2.531,2.531,0,1,0-5.062,0v24.974a9.291,9.291,0,0,0,9.281,9.281H165.718A9.291,9.291,0,0,0,175,163.515V74.673a23.884,23.884,0,0,0,0-41.129ZM139.317,17a.845.845,0,0,1-.844.844H103.166a2.531,2.531,0,1,0,0,5.062h28.328v4.017a2.781,2.781,0,0,1-2.778,2.778H89.168a2.781,2.781,0,0,1-2.778-2.778V22.9h5.3a2.531,2.531,0,1,0,0-5.062H79.412A.845.845,0,0,1,78.568,17V5.062h60.748Zm19.022-6.8h-13.96V5.062h21.339a4.223,4.223,0,0,1,4.219,4.219v22a23.758,23.758,0,0,0-5.9-1.048V15.9a5.706,5.706,0,0,0-5.7-5.7Zm-9.075,63.574.013.009C149.259,73.781,149.249,73.778,149.264,73.775Zm13.567-.824a18.841,18.841,0,1,1,18.841-18.841A18.863,18.863,0,0,1,162.83,72.951Z"/><path class="c" d="M383.483,133.57l-11.71,11.71-2.147-2.147a2.531,2.531,0,0,0-3.579,3.579l3.938,3.938a2.531,2.531,0,0,0,3.579,0l13.5-13.5a2.531,2.531,0,0,0-3.58-3.58Z" transform="translate(-213.605 -88)"/><path class="c" d="M118.708,193.83h9.787a4.223,4.223,0,0,0,4.219-4.219v-9.787a4.223,4.223,0,0,0-4.219-4.219h-9.787a4.223,4.223,0,0,0-4.219,4.219v9.787A4.223,4.223,0,0,0,118.708,193.83Zm.844-13.162h8.1v8.1h-8.1Z" transform="translate(-47.438 -116.34)"/><path class="c" d="M192.261,238.246a2.531,2.531,0,1,0,0-5.062h-.342a2.531,2.531,0,0,0,0,5.062Z" transform="translate(-97.059 -154.486)"/><path class="c" d="M216,238.246a2.531,2.531,0,1,0,0-5.062h-.343a2.531,2.531,0,1,0,0,5.062Z" transform="translate(-112.786 -154.486)"/><path class="c" d="M239.4,238.246h.342a2.531,2.531,0,0,0,0-5.062H239.4a2.531,2.531,0,1,0,0,5.062Z" transform="translate(-128.515 -154.486)"/><path class="c" d="M263.481,238.246a2.531,2.531,0,1,0,0-5.062h-.343a2.531,2.531,0,1,0,0,5.062Z" transform="translate(-144.242 -154.486)"/><path class="c" d="M189.2,180.667h14.858a2.531,2.531,0,1,0,0-5.062H189.2a2.531,2.531,0,1,0,0,5.062Z" transform="translate(-95.258 -116.34)"/><path class="c" d="M114.489,289.822a4.223,4.223,0,0,0,4.219,4.219h9.787a4.223,4.223,0,0,0,4.219-4.219v-9.787a4.223,4.223,0,0,0-4.219-4.219h-9.787a4.223,4.223,0,0,0-4.219,4.219Zm5.062-8.944h8.1v8.1h-8.1Z" transform="translate(-47.438 -182.73)"/><path class="c" d="M191.919,338.457h.342a2.531,2.531,0,1,0,0-5.062h-.342a2.531,2.531,0,1,0,0,5.062Z" transform="translate(-97.059 -220.877)"/><path class="c" d="M215.659,338.457H216a2.531,2.531,0,1,0,0-5.062h-.343a2.531,2.531,0,1,0,0,5.062Z" transform="translate(-112.787 -220.877)"/><path class="c" d="M239.741,338.457a2.531,2.531,0,0,0,0-5.062H239.4a2.531,2.531,0,1,0,0,5.062Z" transform="translate(-128.515 -220.877)"/><path class="c" d="M263.481,338.457a2.531,2.531,0,1,0,0-5.062h-.343a2.531,2.531,0,1,0,0,5.062Z" transform="translate(-144.242 -220.877)"/><path class="c" d="M246.857,306.51a2.531,2.531,0,0,0-2.531-2.531H189.2a2.531,2.531,0,1,0,0,5.062h55.124A2.531,2.531,0,0,0,246.857,306.51Z" transform="translate(-95.258 -201.389)"/><path class="c" d="M186.67,278.347a2.531,2.531,0,0,0,2.531,2.531h14.858a2.531,2.531,0,1,0,0-5.062H189.2A2.531,2.531,0,0,0,186.67,278.347Z" transform="translate(-95.258 -182.73)"/></g><ellipse class="d" cx="70.128" cy="72.745" rx="70.128" ry="72.745"/></g></g></g></svg>