<svg xmlns="http://www.w3.org/2000/svg" width="202.248" height="84" viewBox="0 0 202.248 84"><defs><style>.a,.c{fill:#078ea0;}.b{fill:#fff;}.b,.c{fill-rule:evenodd;}</style></defs><g transform="translate(95.053 21.123)"><path class="a" d="M954.282,356.054a9.77,9.77,0,0,1,5.678,1.479,8.814,8.814,0,0,1,3.213,4.047,15.062,15.062,0,0,1,1.051,5.668l.062,15.737a1.712,1.712,0,0,1-1.662,1.676,1.553,1.553,0,0,1-1.226-.5,1.7,1.7,0,0,1-.45-1.166l-.061-15.737a11.539,11.539,0,0,0-.711-4.112,6.1,6.1,0,0,0-2.264-2.911,7.168,7.168,0,0,0-4.175-1.067,9.446,9.446,0,0,0-4.416,1.1,9.2,9.2,0,0,0-3.353,2.932,7.029,7.029,0,0,0-1.263,4.119l.061,15.737a1.711,1.711,0,0,1-1.662,1.676,1.553,1.553,0,0,1-1.226-.5,1.7,1.7,0,0,1-.45-1.166l-.149-37.812a1.642,1.642,0,0,1,.468-1.169,1.678,1.678,0,0,1,2.391-.009,1.644,1.644,0,0,1,.478,1.166l.071,18.017-1.272,1.951a7.494,7.494,0,0,1,1.071-3.368,11.5,11.5,0,0,1,2.519-2.957,12.534,12.534,0,0,1,3.439-2.07A10.246,10.246,0,0,1,954.282,356.054Z" transform="translate(-941.28 -343.59)"/><path class="a" d="M1166.627,421.92a1.577,1.577,0,0,1,1.2.5,1.644,1.644,0,0,1,.478,1.166l.1,24.523a14.975,14.975,0,0,1-1.749,7.6,11.816,11.816,0,0,1-4.765,4.689,14.424,14.424,0,0,1-6.833,1.611,17.5,17.5,0,0,1-4.422-.511,11.269,11.269,0,0,1-3.315-1.35,2.765,2.765,0,0,1-1-.942,1.187,1.187,0,0,1-.06-1.167,1.63,1.63,0,0,1,.858-1.032,1.416,1.416,0,0,1,1.2.023q.947.5,2.729,1.212a10.725,10.725,0,0,0,4.063.707,10.588,10.588,0,0,0,5.305-1.3,8.6,8.6,0,0,0,3.46-3.712,12.6,12.6,0,0,0,1.2-5.76l-.015-4,.395,1.333a9.578,9.578,0,0,1-2.352,3.067,11.486,11.486,0,0,1-3.494,2.1,11.731,11.731,0,0,1-4.195.768,10.323,10.323,0,0,1-5.539-1.341,8.223,8.223,0,0,1-3.269-3.74,13.791,13.791,0,0,1-1.078-5.612l-.068-17.072a1.7,1.7,0,0,1,.441-1.169,1.55,1.55,0,0,1,1.221-.505,1.578,1.578,0,0,1,1.2.5,1.643,1.643,0,0,1,.478,1.166l.064,16.571a9.373,9.373,0,0,0,1.72,6q1.705,2.108,5.542,2.092a8.727,8.727,0,0,0,4.388-1.157,9.8,9.8,0,0,0,3.269-3.015,6.888,6.888,0,0,0,1.262-3.981l-.064-16.571a1.646,1.646,0,0,1,.469-1.17A1.566,1.566,0,0,1,1166.627,421.92Z" transform="translate(-1114.09 -409.889)"/><path class="a" d="M1352.862,449.357a1.552,1.552,0,0,1-1.226-.5,1.7,1.7,0,0,1-.449-1.166l-.1-24.911a1.639,1.639,0,0,1,.469-1.169,1.678,1.678,0,0,1,2.392-.009,1.645,1.645,0,0,1,.477,1.166l.032,8.342-.834.17a12.722,12.722,0,0,1,.958-3.869,13.206,13.206,0,0,1,2.183-3.54,11.123,11.123,0,0,1,3.3-2.626,9.165,9.165,0,0,1,4.3-1.018,4.755,4.755,0,0,1,1.948.41,1.409,1.409,0,0,1,.95,1.359,1.737,1.737,0,0,1-.439,1.281,1.443,1.443,0,0,1-1.055.449,2.532,2.532,0,0,1-1.086-.273,3.586,3.586,0,0,0-1.53-.272,6.087,6.087,0,0,0-3.11.929,10.75,10.75,0,0,0-2.826,2.485,12.776,12.776,0,0,0-2.017,3.484,10.521,10.521,0,0,0-.735,3.868l.053,13.734a1.708,1.708,0,0,1-1.66,1.674Z" transform="translate(-1288.145 -408.458)"/><path class="a" d="M1485.1,449.4a15.229,15.229,0,0,1-7.569-1.8,13.037,13.037,0,0,1-5.136-5.1,15.452,15.452,0,0,1-1.865-7.666,16.307,16.307,0,0,1,1.831-8.07,13.634,13.634,0,0,1,4.818-5.162,11.968,11.968,0,0,1,6.3-1.832,13.5,13.5,0,0,1,4.758.843,11.91,11.91,0,0,1,4.1,2.542,13.192,13.192,0,0,1,2.908,4.132,14.2,14.2,0,0,1,1.19,5.668,1.5,1.5,0,0,1-.5,1.141,1.649,1.649,0,0,1-1.166.478l-22.3.088-.679-3,21.909-.086-.72.67,0-1.112a8.464,8.464,0,0,0-1.741-4.442,9.493,9.493,0,0,0-3.487-2.766,9.977,9.977,0,0,0-4.257-.929,9.6,9.6,0,0,0-3.418.68,8.984,8.984,0,0,0-3.161,2.1,10.719,10.719,0,0,0-2.293,3.623,13.8,13.8,0,0,0-.869,5.2,13.124,13.124,0,0,0,1.358,5.944,10.307,10.307,0,0,0,3.854,4.212,11.245,11.245,0,0,0,6.067,1.533,10.189,10.189,0,0,0,3.445-.57,10.013,10.013,0,0,0,2.746-1.484,10.8,10.8,0,0,0,1.966-1.926,1.879,1.879,0,0,1,1.166-.505,1.358,1.358,0,0,1,1.03.441,1.429,1.429,0,0,1,.421,1,1.53,1.53,0,0,1-.551,1.17,14.987,14.987,0,0,1-4.324,3.493A11.874,11.874,0,0,1,1485.1,449.4Z" transform="translate(-1389.239 -408.069)"/></g><path class="b" d="M311.372,265.165l27.263-28.654a12.266,12.266,0,0,1,17.958,0l27.263,28.654a13.831,13.831,0,0,1,0,18.874l-27.263,28.654a12.266,12.266,0,0,1-17.958,0L311.372,284.04A13.831,13.831,0,0,1,311.372,265.165Z" transform="translate(-307.652 -232.602)"/><path class="c" d="M383.855,265.165l-27.263-28.654a12.267,12.267,0,0,0-17.958,0l-5.477,5.757.041,10.9a13.112,13.112,0,0,1,2.542-3.038,13.555,13.555,0,0,1,3.76-2.379,10.8,10.8,0,0,1,4.192-.88,10.291,10.291,0,0,1,6.207,1.7,10.053,10.053,0,0,1,3.513,4.649,18.1,18.1,0,0,1,1.149,6.512l.068,18.08a1.887,1.887,0,0,1-.542,1.345,1.712,1.712,0,0,1-1.275.58,1.656,1.656,0,0,1-1.339-.57,2.012,2.012,0,0,1-.492-1.34l-.068-18.08a13.874,13.874,0,0,0-.777-4.725,6.98,6.98,0,0,0-2.474-3.343,7.546,7.546,0,0,0-4.563-1.227,9.929,9.929,0,0,0-4.827,1.266,10.214,10.214,0,0,0-3.665,3.369,8.365,8.365,0,0,0-1.381,4.733l.068,18.08a1.887,1.887,0,0,1-.542,1.345,1.712,1.712,0,0,1-1.275.58,1.656,1.656,0,0,1-1.339-.57,2.012,2.012,0,0,1-.492-1.34l-.118-31.826-18.153,19.081a13.831,13.831,0,0,0,0,18.874l27.263,28.654a12.266,12.266,0,0,0,17.958,0l5.073-5.332-.04-10.772a13.115,13.115,0,0,1-2.542,3.038,13.6,13.6,0,0,1-3.76,2.379,10.8,10.8,0,0,1-4.192.88,10.279,10.279,0,0,1-6.207-1.7,10.053,10.053,0,0,1-3.513-4.649,18.1,18.1,0,0,1-1.149-6.512l-.068-18.08a1.881,1.881,0,0,1,.542-1.343,1.712,1.712,0,0,1,1.275-.58,1.656,1.656,0,0,1,1.339.57,2.012,2.012,0,0,1,.492,1.34l.068,18.08a13.874,13.874,0,0,0,.777,4.725,6.98,6.98,0,0,0,2.474,3.343,7.546,7.546,0,0,0,4.563,1.227,9.929,9.929,0,0,0,4.828-1.266,10.214,10.214,0,0,0,3.665-3.369,8.366,8.366,0,0,0,1.381-4.733l-.068-18.08a1.881,1.881,0,0,1,.542-1.343,1.712,1.712,0,0,1,1.275-.58,1.657,1.657,0,0,1,1.339.57,2.012,2.012,0,0,1,.491,1.34l.118,31.7,18.557-19.5A13.842,13.842,0,0,0,383.855,265.165Zm-41.836-1.371a1.906,1.906,0,1,1,1.8-1.9A1.853,1.853,0,0,1,342.019,263.795Zm10.758,26.046a1.906,1.906,0,1,1,1.8-1.9A1.853,1.853,0,0,1,352.777,289.841Z" transform="translate(-307.652 -232.602)"/></svg>