<svg id="padlock" xmlns="http://www.w3.org/2000/svg" width="13.988" height="18.651">
    <defs>
        <style>
            .cls-1{fill:#078ea0}
        </style>
    </defs>
    <path id="Path_7303" data-name="Path 7303" class="cls-1" d="M15.24 20.657H4.749A1.751 1.751 0 0 1 3 18.908v-8.16A1.751 1.751 0 0 1 4.749 9H15.24a1.751 1.751 0 0 1 1.749 1.749v8.16a1.751 1.751 0 0 1-1.749 1.748zM4.749 10.166a.584.584 0 0 0-.583.583v8.16a.584.584 0 0 0 .583.583H15.24a.584.584 0 0 0 .583-.583v-8.16a.584.584 0 0 0-.583-.583z" transform="translate(-3 -2.006)"/>
    <path id="Path_7304" data-name="Path 7304" class="cls-1" d="M14.743 8.16a.583.583 0 0 1-.583-.583V4.663a3.5 3.5 0 1 0-6.994 0v2.914a.583.583 0 1 1-1.166 0V4.663a4.663 4.663 0 0 1 9.325 0v2.914a.583.583 0 0 1-.582.583z" transform="translate(-3.67)"/>
    <path id="Path_7305" data-name="Path 7305" class="cls-1" d="M11.554 16.108a1.554 1.554 0 1 1 1.554-1.554 1.556 1.556 0 0 1-1.554 1.554zm0-1.943a.389.389 0 1 0 .389.389.389.389 0 0 0-.389-.388z" transform="translate(-4.561 -2.897)"/>
    <path id="Path_7306" data-name="Path 7306" class="cls-1" d="M11.833 19.053a.583.583 0 0 1-.583-.583v-2.137a.583.583 0 1 1 1.166 0v2.137a.583.583 0 0 1-.583.583z" transform="translate(-4.838 -3.511)"/>
</svg>
