<svg id="map-marker-line" xmlns="http://www.w3.org/2000/svg" width="11.57" height="15.988" viewBox="0 0 11.57 15.988">
    <defs>
        <style>
            .cls-1{fill:#078ea0}
        </style>
    </defs>
    <path id="Path_8146" data-name="Path 8146" class="cls-1" d="M15.083 6.72A2.813 2.813 0 1 0 17.9 9.533a2.813 2.813 0 0 0-2.817-2.813zm0 4.644a1.831 1.831 0 1 1 1.831-1.831 1.831 1.831 0 0 1-1.831 1.831z" transform="translate(-9.3 -4.403)"/>
    <path id="Path_8147" data-name="Path 8147" class="cls-1" d="M12 2a5.788 5.788 0 0 0-5.78 5.758c0 2.292 1.286 4.212 2.229 5.611l.172.255a48.9 48.9 0 0 0 3.014 3.927l.373.437.373-.437a49 49 0 0 0 3.014-3.927l.172-.26c.938-1.4 2.224-3.313 2.224-5.606A5.788 5.788 0 0 0 12 2zm2.744 10.8-.177.26A39.911 39.911 0 0 1 12 16.447c-.579-.7-1.723-2.121-2.567-3.387l-.172-.26C8.395 11.5 7.2 9.731 7.2 7.738a4.8 4.8 0 1 1 9.6 0c0 2.013-1.184 3.785-2.053 5.062z" transform="translate(-6.22 -2)"/>
</svg>
