<svg xmlns="http://www.w3.org/2000/svg" width="74.999" height="77.553" viewBox="0 0 74.999 77.553">
    <defs>
        <style>
            .cls-1{fill:#078ea0;stroke:#078ea0}
        </style>
    </defs>
    <g id="placeholder" transform="translate(.5 .5)">
        <g id="Group_5459" data-name="Group 5459" transform="translate(0 56.529)">
            <g id="Group_5458" data-name="Group 5458">
                <path id="Path_8327" data-name="Path 8327" class="cls-1" d="M57.631 354.47a1.276 1.276 0 0 0-.24 2.54c16.074 1.527 22.064 5.208 22.064 7.175 0 3.236-13.1 7.748-34.448 7.748s-34.448-4.513-34.448-7.748c0-1.967 6-5.648 22.064-7.179a1.276 1.276 0 0 0-.24-2.54c-5.718.545-24.376 2.844-24.376 9.719 0 6.762 18.613 10.3 37 10.3s37-3.538 37-10.3c.001-6.875-18.657-9.174-24.376-9.715z" transform="translate(-8.009 -354.462)"/>
            </g>
        </g>
        <g id="Group_5461" data-name="Group 5461" transform="translate(14.537)">
            <g id="Group_5460" data-name="Group 5460">
                <path id="Path_8328" data-name="Path 8328" class="cls-1" d="M137.279 6.391A21.5 21.5 0 0 0 121.642 0a22.218 22.218 0 0 0-19.282 11.3 24.731 24.731 0 0 0-.638 23.163 139.786 139.786 0 0 0 16 25.291l2.923 3.678a1.274 1.274 0 0 0 2 0l2.846-3.611a146.447 146.447 0 0 0 16.076-25.352 24.879 24.879 0 0 0-4.288-28.078zm2 26.944a143.968 143.968 0 0 1-15.787 24.907l-1.849 2.345-1.914-2.415a137.293 137.293 0 0 1-15.717-24.833 22.182 22.182 0 0 1 .569-20.777 19.7 19.7 0 0 1 17.143-10.008 18.883 18.883 0 0 1 13.706 5.6 22.31 22.31 0 0 1 3.845 25.181z" transform="translate(-99.151)"/>
            </g>
        </g>
        <g id="Group_5463" data-name="Group 5463" transform="translate(26.643 12.278)">
            <g id="Group_5462" data-name="Group 5462">
                <path id="Path_8329" data-name="Path 8329" class="cls-1" d="M195.071 83.568a1.275 1.275 0 1 0-2.37.943 8.172 8.172 0 0 1 .383 4.789 7.846 7.846 0 0 1-5.825 5.893 7.757 7.757 0 0 1-7.3-2.072 8.062 8.062 0 0 1-2.141-7.489 7.782 7.782 0 0 1 10.682-5.463 1.276 1.276 0 0 0 1-2.348 10.416 10.416 0 0 0-6.409-.569 10.3 10.3 0 0 0-7.761 7.836 10.589 10.589 0 0 0 2.832 9.842 10.334 10.334 0 0 0 7.316 3.014 10.625 10.625 0 0 0 2.341-.255 10.3 10.3 0 0 0 7.755-7.841 10.686 10.686 0 0 0-.503-6.28z" transform="translate(-175.061 -76.989)"/>
            </g>
        </g>
    </g>
</svg>
