<svg xmlns="http://www.w3.org/2000/svg" width="77.098" height="66.624">
    <defs>
        <style>
            .cls-1{fill:#078ea0;stroke:#078ea0;stroke-width:.3px}
        </style>
    </defs>
    <g id="briefcase" transform="translate(.15 .15)">
        <g id="Group_3528" data-name="Group 3528" transform="translate(1.746 36.653)">
            <g id="Group_3527" data-name="Group 3527">
                <path id="Path_7175" data-name="Path 7175" class="cls-1" d="M83.2 279.273a1.649 1.649 0 0 0-1.745 1.745v22.69a1.649 1.649 0 0 1-1.745 1.745H16.873a1.649 1.649 0 0 1-1.745-1.745v-22.69a1.649 1.649 0 0 0-1.745-1.745 1.649 1.649 0 0 0-1.745 1.745v22.69a5.143 5.143 0 0 0 5.236 5.236h62.833a5.143 5.143 0 0 0 5.236-5.236v-22.69a1.649 1.649 0 0 0-1.743-1.745z" transform="translate(-11.637 -279.273)"/>
            </g>
        </g>
        <g id="Group_3530" data-name="Group 3530" transform="translate(0 12.218)">
            <g id="Group_3529" data-name="Group 3529">
                <path id="Path_7176" data-name="Path 7176" class="cls-1" d="M71.561 116.364H5.236A5.143 5.143 0 0 0 0 121.6v11.171a5.239 5.239 0 0 0 4.014 5.062l27.4 6.109v5.585a1.649 1.649 0 0 0 1.745 1.745h10.476a1.649 1.649 0 0 0 1.745-1.745v-5.585l27.4-6.109a5.239 5.239 0 0 0 4.014-5.062V121.6a5.143 5.143 0 0 0-5.233-5.236zM41.89 147.781h-6.982V140.8h6.982zm31.417-15.01a1.7 1.7 0 0 1-1.4 1.745L45.38 140.45v-1.4a1.649 1.649 0 0 0-1.745-1.745H33.163a1.649 1.649 0 0 0-1.745 1.745v1.4l-26.53-5.934a1.7 1.7 0 0 1-1.4-1.745V121.6a1.649 1.649 0 0 1 1.745-1.745h66.328a1.649 1.649 0 0 1 1.745 1.745z" transform="translate(0 -116.364)"/>
            </g>
        </g>
        <g id="Group_3532" data-name="Group 3532" transform="translate(24.435)">
            <g id="Group_3531" data-name="Group 3531">
                <path id="Path_7177" data-name="Path 7177" class="cls-1" d="M185.6 34.909h-17.455a5.143 5.143 0 0 0-5.236 5.236v1.745a1.745 1.745 0 1 0 3.491 0v-1.745a1.649 1.649 0 0 1 1.745-1.745H185.6a1.649 1.649 0 0 1 1.745 1.745v1.745a1.745 1.745 0 1 0 3.491 0v-1.745a5.142 5.142 0 0 0-5.236-5.236z" transform="translate(-162.909 -34.909)"/>
            </g>
        </g>
    </g>
</svg>
