<svg id="search" xmlns="http://www.w3.org/2000/svg" width="17.817" height="17.817" viewBox="0 0 17.817 17.817">
    <defs>
        <style>
            .cls-1{fill:#078ea0;fill-rule:evenodd}
        </style>
    </defs>
    <path id="Path_7137" data-name="Path 7137" class="cls-1" d="M23.163 23.162a1.114 1.114 0 0 1 1.576 0l4.287 4.287a1.114 1.114 0 0 1-1.574 1.576l-4.287-4.287a1.114 1.114 0 0 1 0-1.576z" transform="translate(-11.535 -11.533)"/>
    <path id="Path_7138" data-name="Path 7138" class="cls-1" d="M7.238 13.363a6.125 6.125 0 1 0-6.124-6.125 6.125 6.125 0 0 0 6.124 6.125zm7.238-6.125A7.238 7.238 0 1 1 7.238 0a7.238 7.238 0 0 1 7.238 7.238z"/>
</svg>
