<svg xmlns="http://www.w3.org/2000/svg" width="25.675" height="45.317" viewBox="0 0 25.675 45.317">
    <defs>
        <style>
            .cls-1{fill:#b6b6b6;stroke:#b6b6b6;stroke-width:.5px}
        </style>
    </defs>
    <g id="smartphone" transform="translate(.25 .25)">
        <path id="Path_8308" data-name="Path 8308" class="cls-1" d="M167.416 83.84h-.016a.57.57 0 1 0 0 1.139h.019a.57.57 0 0 0 0-1.139z" transform="translate(-162.706 -77.778)"/>
        <path id="Path_8309" data-name="Path 8309" class="cls-1" d="M191.817 207.139a.568.568 0 0 0 .405-.169L200.1 199a.57.57 0 1 0-.81-.8l-7.878 7.97a.57.57 0 0 0 .405.97z" transform="translate(-184.808 -181.125)"/>
        <path id="Path_8310" data-name="Path 8310" class="cls-1" d="M246.51 234.557a.57.57 0 0 0 .806 0l4.027-4.027a.57.57 0 0 0-.806-.806l-4.027 4.027a.57.57 0 0 0 0 .806z" transform="translate(-234.671 -209.659)"/>
        <path id="Path_8311" data-name="Path 8311" class="cls-1" d="M241.024 424.554a1.571 1.571 0 1 0-1.571-1.571 1.571 1.571 0 0 0 1.571 1.571zm0-2a.432.432 0 1 1-.432.432.432.432 0 0 1 .432-.434z" transform="translate(-228.437 -383.298)"/>
        <path id="Path_8312" data-name="Path 8312" class="cls-1" d="M144.03 20h-16.023a4.581 4.581 0 0 0-4.576 4.576v35.665a4.581 4.581 0 0 0 4.576 4.576h16.023a4.581 4.581 0 0 0 4.576-4.576V24.576A4.581 4.581 0 0 0 144.03 20zm3.436 40.241a3.44 3.44 0 0 1-3.436 3.436h-16.023a3.44 3.44 0 0 1-3.436-3.436V56.1h22.9zm0-34.18H130.18a.57.57 0 0 0 0 1.139h17.287v27.765h-22.9V27.2h1.563a.57.57 0 0 0 0-1.139h-1.56v-1.485a3.44 3.44 0 0 1 3.436-3.436h16.024a3.44 3.44 0 0 1 3.436 3.436z" transform="translate(-123.431 -20)"/>
    </g>
</svg>
