<svg xmlns="http://www.w3.org/2000/svg" width="20.075" height="19.241" viewBox="0 0 20.075 19.241">
    <path data-name="star" d="M21.117 9.036a1.7 1.7 0 0 0-1.345-1.153L14.923 7.1l-2.247-4.367a1.7 1.7 0 0 0-3.027 0L7.4 7.1l-4.848.787a1.7 1.7 0 0 0-.935 2.876l3.459 3.484-.749 4.849a1.7 1.7 0 0 0 2.449 1.777l4.385-2.21 4.385 2.21A1.7 1.7 0 0 0 18 19.091l-.749-4.849 3.459-3.484a1.693 1.693 0 0 0 .41-1.723zm-1.36.781-3.935 3.963.852 5.516a.363.363 0 0 1-.523.38l-4.988-2.514-4.988 2.514a.363.363 0 0 1-.523-.38L6.5 13.78 2.57 9.817a.364.364 0 0 1 .2-.614l5.514-.9L10.84 3.34a.364.364 0 0 1 .647 0l2.556 4.963 5.514.9a.364.364 0 0 1 .2.614z" transform="translate(-1.126 -1.811)" style="fill:#005aa7"/>
</svg>
