<svg xmlns="http://www.w3.org/2000/svg" width="15.4" height="14.76" viewBox="0 0 15.4 14.76">
    <path data-name="star" d="M16.461 7.354a1.3 1.3 0 0 0-1.032-.884l-3.719-.6-1.724-3.351a1.306 1.306 0 0 0-2.322 0L5.94 5.866l-3.719.6A1.3 1.3 0 0 0 1.5 8.675l2.653 2.672-.574 3.72a1.3 1.3 0 0 0 1.879 1.364l3.364-1.7 3.364 1.7a1.305 1.305 0 0 0 1.879-1.364l-.574-3.72 2.653-2.672a1.3 1.3 0 0 0 .314-1.322zm-1.044.6L12.4 10.993l.653 4.231a.278.278 0 0 1-.4.291l-3.827-1.928L5 15.515a.278.278 0 0 1-.4-.291l.653-4.231-3.02-3.04a.279.279 0 0 1 .153-.471l4.23-.687 1.961-3.807a.279.279 0 0 1 .5 0l1.961 3.807 4.23.687a.279.279 0 0 1 .153.471z" transform="translate(-1.126 -1.811)" style="fill:#078ea0"/>
</svg>
