<svg xmlns="http://www.w3.org/2000/svg" width="11.433" height="14.077" viewBox="0 0 11.433 14.077">
    <defs>
        <style>
            .cls-1{fill:#676767}
        </style>
    </defs>
    <g id="delete">
        <path id="Path_1201" data-name="Path 1201" class="cls-1" d="M222.728 154.7a.33.33 0 0 0-.33.33v6.231a.33.33 0 0 0 .659 0v-6.231a.33.33 0 0 0-.329-.33zm0 0" transform="translate(-215.066 -149.603)"/>
        <path id="Path_1202" data-name="Path 1202" class="cls-1" d="M104.728 154.7a.33.33 0 0 0-.33.33v6.231a.33.33 0 1 0 .659 0v-6.231a.33.33 0 0 0-.329-.33zm0 0" transform="translate(-100.957 -149.603)"/>
        <path id="Path_1203" data-name="Path 1203" class="cls-1" d="M.933 4.19v8.123a1.819 1.819 0 0 0 .484 1.254 1.624 1.624 0 0 0 1.178.509h6.237a1.623 1.623 0 0 0 1.178-.509 1.819 1.819 0 0 0 .484-1.254V4.19a1.259 1.259 0 0 0-.323-2.477H8.483V1.3A1.295 1.295 0 0 0 7.177 0H4.25a1.295 1.295 0 0 0-1.306 1.3v.412H1.256A1.259 1.259 0 0 0 .933 4.19zm7.9 9.227H2.595a1.044 1.044 0 0 1-1-1.1V4.219h8.239v8.094a1.044 1.044 0 0 1-1.002 1.104zM3.6 1.3a.635.635 0 0 1 .65-.642h2.927a.635.635 0 0 1 .646.643v.412H3.6zM1.256 2.372h8.914a.593.593 0 0 1 0 1.187H1.256a.593.593 0 0 1 0-1.187zm0 0" transform="translate(.003 .001)"/>
        <path id="Path_1204" data-name="Path 1204" class="cls-1" d="M163.728 154.7a.33.33 0 0 0-.33.33v6.231a.33.33 0 0 0 .659 0v-6.231a.33.33 0 0 0-.329-.33zm0 0" transform="translate(-158.011 -149.603)"/>
    </g>
</svg>
