<svg id="edit_1_" data-name="edit (1)" xmlns="http://www.w3.org/2000/svg" width="11.906" height="11.846" viewBox="0 0 11.906 11.846">
    <defs>
        <style>
            .cls-1{fill:#676767}
        </style>
    </defs>
    <path id="Path_1208" data-name="Path 1208" class="cls-1" d="M10.988 45.452a.3.3 0 0 0-.3.3v2.633a.89.89 0 0 1-.89.89H1.483a.89.89 0 0 1-.89-.89v-7.731a.891.891 0 0 1 .89-.89h2.632a.3.3 0 0 0 0-.593H1.483A1.484 1.484 0 0 0 0 40.654v7.727a1.484 1.484 0 0 0 1.483 1.483H9.8a1.484 1.484 0 0 0 1.483-1.483v-2.633a.3.3 0 0 0-.295-.296zm0 0" transform="translate(0 -38.018)"/>
    <path id="Path_1209" data-name="Path 1209" class="cls-1" d="M116.149.652a1.334 1.334 0 0 0-1.887 0l-5.29 5.29a.3.3 0 0 0-.076.131l-.7 2.511a.3.3 0 0 0 .365.365l2.511-.7a.3.3 0 0 0 .131-.076l5.29-5.29A1.336 1.336 0 0 0 116.5 1zm-6.531 5.483 4.329-4.33 1.4 1.4-4.33 4.33zm-.279.56 1.115 1.116-1.543.428zm6.738-4.227-.314.314-1.4-1.4.315-.314a.741.741 0 0 1 1.048 0l.348.348a.742.742 0 0 1 .004 1.051zm0 0" transform="translate(-104.982 -.261)"/>
</svg>
