<svg xmlns="http://www.w3.org/2000/svg" width="15.29" height="15.288">
    <path data-name="Path 1144" d="M4.615 2.4a.648.648 0 0 0-.969-.06l-.989.989a1.633 1.633 0 0 0-.429 1.69 16.787 16.787 0 0 0 3.983 6.316 16.787 16.787 0 0 0 6.315 3.982 1.635 1.635 0 0 0 1.69-.429l.989-.989a.648.648 0 0 0-.061-.969l-2.2-1.714a.648.648 0 0 0-.554-.117l-2.091.523a1.667 1.667 0 0 1-1.584-.439L6.363 8.83a1.667 1.667 0 0 1-.438-1.584l.523-2.091A.648.648 0 0 0 6.33 4.6zm-1.69-.78a1.667 1.667 0 0 1 2.5.156l1.713 2.2a1.663 1.663 0 0 1 .3 1.427l-.525 2.091a.648.648 0 0 0 .17.616l2.348 2.347a.648.648 0 0 0 .616.17l2.091-.523a1.667 1.667 0 0 1 1.428.3l2.2 1.713a1.667 1.667 0 0 1 .156 2.5l-.989.989a2.656 2.656 0 0 1-2.749.671 17.807 17.807 0 0 1-6.7-4.224 17.806 17.806 0 0 1-4.224-6.7A2.657 2.657 0 0 1 1.937 2.6l.989-.988z" transform="translate(-1.124 -1.128)" style="fill:#078ea0;fill-rule:evenodd"/>
</svg>
