<svg xmlns="http://www.w3.org/2000/svg" width="27.463" height="22.314" viewBox="0 0 27.463 22.314">
    <path fill="#03a9f4" d="M27.463 50.642a11.738 11.738 0 0 1-3.244.889 5.6 5.6 0 0 0 2.481-3.112 11.252 11.252 0 0 1-3.57 1.363 5.63 5.63 0 0 0-9.739 3.85 5.8 5.8 0 0 0 .13 1.284 15.936 15.936 0 0 1-11.6-5.889 5.632 5.632 0 0 0 1.73 7.525 5.56 5.56 0 0 1-2.551-.694v.062a5.656 5.656 0 0 0 4.511 5.532 5.619 5.619 0 0 1-1.476.185 4.978 4.978 0 0 1-1.066-.1 5.684 5.684 0 0 0 5.261 3.922 11.313 11.313 0 0 1-6.981 2.4A10.546 10.546 0 0 1 0 67.787a15.85 15.85 0 0 0 8.637 2.527 15.914 15.914 0 0 0 16.025-16.022c0-.249-.009-.489-.021-.728a11.232 11.232 0 0 0 2.822-2.922z" transform="translate(0 -48)"/>
</svg>
