<svg xmlns="http://www.w3.org/2000/svg" width="24.514" height="24.513" viewBox="0 0 24.514 24.513"><defs><style>.a{fill:#fff;}</style></defs><g transform="translate(0 -0.011)"><g transform="translate(0 0.011)"><path class="a" d="M21.113,3.782a12.252,12.252,0,1,0-17.341,17.3c.007.007.01.017.017.024.071.068.148.126.22.192.2.175.394.356.6.525.111.088.227.175.34.256.2.146.392.292.6.427.139.088.283.175.425.263.189.114.377.228.572.333.165.088.334.163.5.242.184.088.365.175.553.254s.377.14.568.208.355.131.538.187c.207.062.418.11.628.162.175.043.345.092.525.127.242.048.487.079.732.112.151.021.3.051.452.066.4.039.805.061,1.213.061s.812-.022,1.213-.061c.153-.015.3-.045.452-.066.245-.033.49-.064.732-.112.175-.035.35-.088.525-.127.21-.052.422-.1.628-.162.183-.056.36-.124.538-.187s.382-.131.568-.208.369-.167.553-.254c.168-.08.337-.155.5-.242.2-.1.383-.219.572-.333.143-.088.286-.167.425-.263.2-.135.4-.281.6-.427.114-.088.229-.166.34-.256.207-.166.4-.343.6-.525.072-.066.149-.123.22-.192.007-.006.01-.017.017-.024A12.238,12.238,0,0,0,21.113,3.782ZM19.145,20.169c-.159.14-.324.273-.49.4-.1.075-.2.15-.3.221-.158.115-.319.223-.483.327-.119.076-.241.15-.363.221q-.231.131-.469.263c-.14.072-.283.139-.426.206s-.3.137-.457.2-.319.121-.481.175-.3.1-.445.148c-.175.053-.358.1-.539.139-.142.033-.282.071-.425.1-.207.04-.419.068-.632.1-.121.016-.241.038-.362.05-.336.032-.677.052-1.021.052s-.684-.019-1.021-.052c-.122-.012-.242-.034-.362-.05-.213-.029-.424-.057-.632-.1-.144-.028-.284-.066-.425-.1-.181-.044-.361-.088-.539-.139-.15-.045-.3-.1-.445-.148s-.324-.113-.481-.175-.306-.13-.457-.2-.286-.134-.426-.206c-.158-.082-.315-.169-.469-.263-.123-.072-.244-.145-.363-.221-.164-.1-.325-.213-.483-.327-.1-.072-.2-.146-.3-.221-.166-.129-.331-.263-.49-.4-.039-.029-.074-.066-.111-.1a7.022,7.022,0,0,1,4.773-6.56,5.189,5.189,0,0,0,4.458,0,7.022,7.022,0,0,1,4.773,6.56C19.218,20.1,19.183,20.137,19.145,20.169ZM9.2,7.028A3.5,3.5,0,1,1,13.969,11.8a.018.018,0,0,0-.015.005,3.708,3.708,0,0,1-.732.31c-.045.013-.088.031-.136.042-.088.023-.179.039-.27.054a3.545,3.545,0,0,1-.514.052h-.1a3.545,3.545,0,0,1-.514-.052c-.088-.016-.18-.031-.27-.054-.046-.011-.088-.029-.136-.042a3.705,3.705,0,0,1-.732-.31l-.016-.005A3.5,3.5,0,0,1,9.2,7.028ZM20.807,18.335h0A8.8,8.8,0,0,0,16.122,12.3a5.251,5.251,0,1,0-7.737,0A8.8,8.8,0,0,0,3.7,18.335a10.5,10.5,0,1,1,17.108,0Z" transform="translate(0 -0.011)"/></g></g></svg>