<svg xmlns="http://www.w3.org/2000/svg" width="30" height="30" viewBox="0 0 30 30">
    <path fill="#1ab7ea" d="M0 0H30V30H0z"/>
    <path fill="#fff" d="M49.642 78.669l1.151 1.459s1.439-1.116 1.957-1.116c.322 0 1.007.372 1.439 1.66s2.249 7.963 2.36 8.27c.5 1.381 1.151 3.949 3.166 4.321S64.29 91.6 65.7 90.115s6.964-7.841 7.194-11.647c.213-3.519-.948-4.336-1.468-4.664a4.9 4.9 0 0 0-4.029-.286 7.05 7.05 0 0 0-4.374 5.208s2.043-.744 2.791-.029.547 2.289-.086 3.462-2.417 3.892-3.079 3.978-1.18-1.2-1.266-1.545S60.2 79.527 59.8 76.78s-2.158-3.2-2.993-3.2-2.273.62-7.165 5.089z" transform="translate(-46.281 -68.265)"/>
</svg>
