<svg xmlns="http://www.w3.org/2000/svg" width="177.005" height="177.005" viewBox="0 0 177.005 177.005"><ellipse cx="70.128" cy="72.745" rx="70.128" ry="72.745" transform="translate(36.749 31.516)" fill="#15b9a2" opacity="0.198"/><g transform="translate(0)"><g transform="translate(0)"><path d="M136.435,0H11.063A11.062,11.062,0,0,0,0,11.062v88.5a11.062,11.062,0,0,0,11.062,11.062H59v-7.375H11.063A3.688,3.688,0,0,1,7.376,99.56v-88.5a3.688,3.688,0,0,1,3.688-3.688H136.435a3.688,3.688,0,0,1,3.688,3.688V77.436H147.5V11.062A11.062,11.062,0,0,0,136.435,0Z" transform="translate(-0.001)" fill="#078ea0"/></g><g transform="translate(44.249 106.935)"><rect width="7.375" height="22.124" fill="#078ea0"/></g><g transform="translate(14.75 77.436)"><path d="M53.73,235.062a3.688,3.688,0,0,1-3.688-3.688V224H42.668v7.375A11.062,11.062,0,0,0,53.73,242.437H61.1v-7.375Z" transform="translate(-42.668 -224)" fill="#078ea0"/></g><g transform="translate(14.75 62.686)"><rect width="7.375" height="7.375" fill="#078ea0"/></g><g transform="translate(66.368 66.37)"><path d="M260.382,203.726a40.064,40.064,0,1,0-.005,56.659A40.064,40.064,0,0,0,260.382,203.726Zm-28.353,61.019a32.689,32.689,0,1,1,32.7-32.678A32.689,32.689,0,0,1,232.029,264.745Z" transform="translate(-191.986 -191.989)" fill="#078ea0"/></g><g transform="translate(136.188 136.184)"><path d="M433.683,418.161l-23.146-23.138a3.685,3.685,0,0,0-5.214,0L395.036,405.31a3.688,3.688,0,0,0,0,5.214l23.146,23.15a3.686,3.686,0,0,0,2.607,1.08h0a3.687,3.687,0,0,0,2.607-1.091l10.288-10.288A3.688,3.688,0,0,0,433.683,418.161Zm-12.9,7.692-17.932-17.936,5.074-5.074,17.932,17.936Z" transform="translate(-393.956 -393.942)" fill="#078ea0"/></g><g transform="translate(129.549 129.547)"><g transform="translate(0 0)"><rect width="7.375" height="18.186" transform="translate(0 5.215) rotate(-45)" fill="#078ea0"/></g></g><g transform="translate(106.935 81.123)"><path d="M309.334,234.667v7.375a18.459,18.459,0,0,1,18.437,18.437h7.375A25.841,25.841,0,0,0,309.334,234.667Z" transform="translate(-309.334 -234.667)" fill="#078ea0"/></g><g transform="translate(36.874 125.372)"><rect width="29.499" height="7.375" fill="#078ea0"/></g><g transform="translate(44.249 14.75)"><path d="M139.063,42.667a11.062,11.062,0,1,0,11.062,11.062A11.062,11.062,0,0,0,139.063,42.667Zm0,14.749a3.688,3.688,0,1,1,3.688-3.688A3.688,3.688,0,0,1,139.063,57.416Z" transform="translate(-128.001 -42.667)" fill="#078ea0"/></g><g transform="translate(70.061 40.561)"><path d="M213.73,117.333A11.062,11.062,0,1,0,224.792,128.4,11.062,11.062,0,0,0,213.73,117.333Zm0,14.75a3.688,3.688,0,1,1,3.688-3.688A3.688,3.688,0,0,1,213.73,132.083Z" transform="translate(-202.668 -117.333)" fill="#078ea0"/></g><g transform="translate(30.579 26.893)"><g transform="translate(0 0)"><rect width="26.074" height="7.375" transform="translate(0 18.437) rotate(-45)" fill="#078ea0"/></g></g><g transform="translate(56.375 26.903)"><g transform="translate(0 0)"><rect width="7.375" height="26.074" transform="translate(0 5.215) rotate(-45)" fill="#078ea0"/></g></g><g transform="translate(95.873 14.75)"><path d="M288.4,42.667a11.062,11.062,0,1,0,11.062,11.062A11.062,11.062,0,0,0,288.4,42.667Zm0,14.749a3.688,3.688,0,1,1,3.688-3.688A3.688,3.688,0,0,1,288.4,57.416Z" transform="translate(-277.334 -42.667)" fill="#078ea0"/></g><g transform="translate(82.201 26.906)"><g transform="translate(0 0)"><rect width="26.074" height="7.375" transform="translate(0 18.437) rotate(-45)" fill="#078ea0"/></g></g></g></svg>