<svg xmlns="http://www.w3.org/2000/svg" width="36.993" height="25.901" viewBox="0 0 36.993 25.901">
    <path fill="red" d="M36.231 4.053a4.635 4.635 0 0 0-3.26-3.261C30.076 0 18.5 0 18.5 0S6.917 0 4.022.762a4.729 4.729 0 0 0-3.26 3.291C0 6.947 0 12.951 0 12.951s0 6.033.762 8.9a4.636 4.636 0 0 0 3.261 3.261C6.947 25.9 18.5 25.9 18.5 25.9s11.579 0 14.474-.762a4.635 4.635 0 0 0 3.261-3.26c.762-2.895.762-8.9.762-8.9s.026-6.031-.766-8.925zm0 0"/>
    <path fill="#fff" d="M204.969 113.576l9.629-5.546-9.629-5.546zm0 0" transform="translate(-190.159 -95.08)"/>
</svg>
